<?xml version="1.0" encoding="UTF-8" standalone="no"?>
<svg width="46px" height="13px" viewBox="0 0 46 13" version="1.1" xmlns="http://www.w3.org/2000/svg" xmlns:xlink="http://www.w3.org/1999/xlink">
    <!-- Generator: Sketch 3.7.2 (28276) - http://www.bohemiancoding.com/sketch -->
    <title>Fill 32</title>
    <desc>Created with Sketch.</desc>
    <defs></defs>
    <g id="Page-1" stroke="none" stroke-width="1" fill="none" fill-rule="evenodd">
        <g id="BOOK-LIST---default-view" transform="translate(-581.000000, -78.000000)" stroke-width="2" stroke="#FFFFFF">
            <g id="Nav-Bar">
                <path d="M587.238095,79 C584.344571,79 582,81.3445714 582,84.2380952 C582,87.131619 584.344571,89.4761905 587.238095,89.4761905 C590.131619,89.4761905 592.47619,87.131619 592.47619,84.2380952 C592.47619,81.3445714 590.131619,79 587.238095,79 L587.238095,79 Z M604,79 C601.106476,79 598.761905,81.3445714 598.761905,84.2380952 C598.761905,87.131619 601.106476,89.4761905 604,89.4761905 C606.893524,89.4761905 609.238095,87.131619 609.238095,84.2380952 C609.238095,81.3445714 606.893524,79 604,79 L604,79 Z M620.761905,79 C617.868381,79 615.52381,81.3445714 615.52381,84.2380952 C615.52381,87.131619 617.868381,89.4761905 620.761905,89.4761905 C623.655429,89.4761905 626,87.131619 626,84.2380952 C626,81.3445714 623.655429,79 620.761905,79 L620.761905,79 Z" id="Fill-32"></path>
            </g>
        </g>
    </g>
</svg>