<?xml version="1.0" encoding="UTF-8" standalone="no"?>
<svg width="40px" height="40px" viewBox="0 0 40 40" version="1.1" xmlns="http://www.w3.org/2000/svg" xmlns:xlink="http://www.w3.org/1999/xlink">
    <!-- Generator: Sketch 3.7.2 (28276) - http://www.bohemiancoding.com/sketch -->
    <title>Search</title>
    <desc>Created with Sketch.</desc>
    <defs></defs>
    <g id="Page-1" stroke="none" stroke-width="1" fill="none" fill-rule="evenodd">
        <g id="BOOK-LIST---default-view" transform="translate(-679.000000, -64.000000)" fill="#FFFFFF">
            <g id="Nav-Bar">
                <path d="M703.521412,91.7658364 C697.763811,96.024 689.618787,95.7953099 684.090386,90.8175152 C677.77617,85.1321694 677.26637,75.4046024 682.951716,69.0903862 C688.637061,62.7761699 698.364628,62.2663698 704.678845,67.9517156 C710.618293,73.2996191 711.421897,82.2241479 706.764451,88.5200272 L718.470782,100.226358 L715.226358,103.470782 L703.521412,91.7658364 Z M703.530935,87.6199988 L703.530935,87.6199988 C708.079212,82.5686258 707.671372,74.7865722 702.619999,70.2382955 C697.568626,65.6900189 689.786572,66.097859 685.238296,71.149232 C680.690019,76.200605 681.097859,83.9826586 686.149232,88.5309352 C691.200605,93.0792119 698.982659,92.6713717 703.530935,87.6199988 Z" id="Search"></path>
            </g>
        </g>
    </g>
</svg>