<?xml version="1.0" encoding="UTF-8" standalone="no"?>
<svg width="40px" height="35px" viewBox="0 0 40 35" version="1.1" xmlns="http://www.w3.org/2000/svg" xmlns:xlink="http://www.w3.org/1999/xlink">
    <!-- Generator: Sketch 39.1 (31720) - http://www.bohemiancoding.com/sketch -->
    <title>Combined Shape</title>
    <desc>Created with Sketch.</desc>
    <defs></defs>
    <g id="Symbols" stroke="none" stroke-width="1" fill="none" fill-rule="evenodd">
        <g id="action-bar" transform="translate(-43.000000, -27.000000)" stroke="#00607F" fill="#00607F">
            <path d="M52.7,39.6416667 L62,31.1166667 L62,51.8333333 C62,52.3833333 62.4,52.75 63,52.75 C63.6,52.75 64,52.3833333 64,51.8333333 L64,31.1166667 L73.3,39.6416667 C73.5,39.825 73.8,39.9166667 74,39.9166667 C74.2,39.9166667 74.5,39.825 74.7,39.6416667 C75.1,39.275 75.1,38.725 74.7,38.3583333 L63.7,28.275 C63.3,27.9083333 62.7,27.9083333 62.3,28.275 L51.3,38.3583333 C50.9,38.725 50.9,39.275 51.3,39.6416667 C51.7,40.0083333 52.3,40.0083333 52.7,39.6416667 Z M81.2083333,48.1666667 C80.7333333,48.1666667 80.4166667,48.5333333 80.4166667,49.0833333 L80.4166667,57.3333333 C80.4166667,58.3416667 79.7041667,59.1666667 78.8333333,59.1666667 L47.1666667,59.1666667 C46.2958333,59.1666667 45.5833333,58.3416667 45.5833333,57.3333333 L45.5833333,49.0833333 C45.5833333,48.5333333 45.2666667,48.1666667 44.7916667,48.1666667 C44.3166667,48.1666667 44,48.5333333 44,49.0833333 L44,57.3333333 C44,59.35 45.425,61 47.1666667,61 L78.8333333,61 C80.575,61 82,59.35 82,57.3333333 L82,49.0833333 C82,48.5333333 81.6833333,48.1666667 81.2083333,48.1666667 Z" id="Combined-Shape"></path>
        </g>
    </g>
</svg>