<?xml version="1.0" encoding="UTF-8" standalone="no"?>
<svg width="40px" height="37px" viewBox="0 0 40 37" version="1.1" xmlns="http://www.w3.org/2000/svg" xmlns:xlink="http://www.w3.org/1999/xlink">
    <!-- Generator: Sketch 3.8.3 (29802) - http://www.bohemiancoding.com/sketch -->
    <title>Shape</title>
    <desc>Created with Sketch.</desc>
    <defs></defs>
    <g id="Page-1" stroke="none" stroke-width="1" fill="none" fill-rule="evenodd">
        <g id="BOOK-LIST---default-view" transform="translate(-40.000000, -66.000000)" fill="#FFFFFF">
            <g id="Nav-Bar">
                <path d="M55.8222222,95.3333333 L49.4222222,101.733333 C49.3777778,101.777778 49.3333333,101.822222 49.2888889,101.866667 C49.2444444,101.911111 49.2,101.955556 49.1555556,101.955556 C49.1111111,102 49.0666667,102 49.0222222,102.044444 C48.9333333,102.088889 48.8444444,102.133333 48.7111111,102.177778 C48.6666667,102.177778 48.6222222,102.222222 48.5777778,102.222222 C48.4444444,102.266667 48.3111111,102.266667 48.1777778,102.266667 C48.0444444,102.266667 47.9111111,102.266667 47.7777778,102.222222 C47.7333333,102.222222 47.6888889,102.222222 47.6444444,102.177778 C47.5555556,102.133333 47.4666667,102.088889 47.3333333,102.044444 C47.2888889,102 47.2444444,102 47.2,101.955556 C47.1555556,101.911111 47.1111111,101.911111 47.0666667,101.866667 C47.0222222,101.822222 46.9777778,101.777778 46.9333333,101.733333 L40.5333333,95.3333333 C39.8222222,94.6222222 39.8222222,93.5111111 40.5333333,92.8444444 C41.2444444,92.1333333 42.3555556,92.1333333 43.0222222,92.8444444 L46.4,96.2222222 L46.4,67.7777778 C46.4,66.8 47.2,66 48.1777778,66 C49.1555556,66 49.9555556,66.8 49.9555556,67.7777778 L49.9555556,96.2222222 L53.3333333,92.8444444 C54.0444444,92.1333333 55.1555556,92.1333333 55.8222222,92.8444444 C56.5333333,93.5111111 56.5333333,94.6222222 55.8222222,95.3333333 Z M67.9555556,101.911111 L61.1111111,101.911111 C60.1333333,101.911111 59.3333333,101.111111 59.3333333,100.133333 C59.3333333,99.1555556 60.1333333,98.3555556 61.1111111,98.3555556 L67.9555556,98.3555556 C68.9333333,98.3555556 69.7333333,99.1555556 69.7333333,100.133333 C69.7333333,101.111111 68.9333333,101.911111 67.9555556,101.911111 Z M71.3777778,91.1111111 L61.1111111,91.1111111 C60.1333333,91.1111111 59.3333333,90.3111111 59.3333333,89.3333333 C59.3333333,88.3555556 60.1333333,87.5555556 61.1111111,87.5555556 L71.3777778,87.5555556 C72.3555556,87.5555556 73.1555556,88.3555556 73.1555556,89.3333333 C73.1555556,90.3555556 72.3555556,91.1111111 71.3777778,91.1111111 Z M74.8,80.3555556 L61.1111111,80.3555556 C60.1333333,80.3555556 59.3333333,79.5555556 59.3333333,78.5777778 C59.3333333,77.6 60.1333333,76.8 61.1111111,76.8 L74.8,76.8 C75.7777778,76.8 76.5777778,77.6 76.5777778,78.5777778 C76.5777778,79.5555556 75.7777778,80.3555556 74.8,80.3555556 Z M78.2222222,69.5555556 L61.1111111,69.5555556 C60.1333333,69.5555556 59.3333333,68.7555556 59.3333333,67.7777778 C59.3333333,66.8 60.1333333,66 61.1111111,66 L78.2222222,66 C79.2,66 80,66.8 80,67.7777778 C80,68.7555556 79.2,69.5555556 78.2222222,69.5555556 Z" id="Shape"></path>
            </g>
        </g>
    </g>
</svg>