<?xml version="1.0" encoding="UTF-8" standalone="no"?>
<svg width="727px" height="20px" viewBox="0 0 727 20" version="1.1" xmlns="http://www.w3.org/2000/svg" xmlns:xlink="http://www.w3.org/1999/xlink">
    <!-- Generator: Sketch 3.7.2 (28276) - http://www.bohemiancoding.com/sketch -->
    <title>Status Bar White</title>
    <desc>Created with Sketch.</desc>
    <defs></defs>
    <g id="Page-1" stroke="none" stroke-width="1" fill="none" fill-rule="evenodd">
        <g id="BOOK-LIST---favorites" transform="translate(-13.000000, -12.000000)" fill="#FFFFFF">
            <g id="Nav-Bar">
                <g id="Status-Bar-White">
                    <path d="M18.8561644,27.45 C21.8937305,27.45 24.3561644,25.1106878 24.3561644,22.225 C24.3561644,19.3393122 21.8937305,17 18.8561644,17 C15.8185983,17 13.3561644,19.3393122 13.3561644,22.225 C13.3561644,25.1106878 15.8185983,27.45 18.8561644,27.45 Z M32.8561644,27.45 C35.8937305,27.45 38.3561644,25.1106878 38.3561644,22.225 C38.3561644,19.3393122 35.8937305,17 32.8561644,17 C29.8185983,17 27.3561644,19.3393122 27.3561644,22.225 C27.3561644,25.1106878 29.8185983,27.45 32.8561644,27.45 Z M46.8561644,27.45 C49.8937305,27.45 52.3561644,25.1106878 52.3561644,22.225 C52.3561644,19.3393122 49.8937305,17 46.8561644,17 C43.8185983,17 41.3561644,19.3393122 41.3561644,22.225 C41.3561644,25.1106878 43.8185983,27.45 46.8561644,27.45 Z M60.8561644,27.45 C63.8937305,27.45 66.3561644,25.1106878 66.3561644,22.225 C66.3561644,19.3393122 63.8937305,17 60.8561644,17 C57.8185983,17 55.3561644,19.3393122 55.3561644,22.225 C55.3561644,25.1106878 57.8185983,27.45 60.8561644,27.45 Z M60.8561644,26.5 C63.3414458,26.5 65.3561644,24.5860173 65.3561644,22.225 C65.3561644,19.8639827 63.3414458,17.95 60.8561644,17.95 C58.370883,17.95 56.3561644,19.8639827 56.3561644,22.225 C56.3561644,24.5860173 58.370883,26.5 60.8561644,26.5 Z M74.8561644,27.45 C77.8937305,27.45 80.3561644,25.1106878 80.3561644,22.225 C80.3561644,19.3393122 77.8937305,17 74.8561644,17 C71.8185983,17 69.3561644,19.3393122 69.3561644,22.225 C69.3561644,25.1106878 71.8185983,27.45 74.8561644,27.45 Z M74.8561644,26.5 C77.3414458,26.5 79.3561644,24.5860173 79.3561644,22.225 C79.3561644,19.8639827 77.3414458,17.95 74.8561644,17.95 C72.370883,17.95 70.3561644,19.8639827 70.3561644,22.225 C70.3561644,24.5860173 72.370883,26.5 74.8561644,26.5 Z" id="Mobile-Signal"></path>
                    <path d="M109.754595,26.1831582 C108.718501,25.0563466 107.170477,24.3409326 105.440879,24.3409326 C103.743768,24.3409326 102.221472,25.0297248 101.186084,26.1201036 L105.510832,30.1 L109.754595,26.1831582 Z M114.112746,22.1607407 C111.955312,20.0143167 108.868631,18.6704663 105.440879,18.6704663 C102.042298,18.6704663 98.9790062,19.991542 96.8242929,22.1061178 L99.0043508,24.1123399 C100.600163,22.5102045 102.89305,21.5056995 105.440879,21.5056995 C108.019521,21.5056995 110.337014,22.5346466 111.934996,24.1707257 L114.112746,22.1607407 L114.112746,22.1607407 Z M118.465753,18.1430707 C115.191669,14.9749298 110.566893,13 105.440879,13 C100.340774,13 95.7368527,14.9550165 92.4657534,18.0951242 L94.6448693,20.1004794 C97.357913,17.4732014 101.191538,15.8352332 105.440879,15.8352332 C109.717759,15.8352332 113.573515,17.4944996 116.289493,20.1516812 L118.465753,18.1430707 Z" id="Wi-Fi"></path>
                    <text id="9:41-AM" font-family="HelveticaNeue, Helvetica Neue" font-size="22.8" font-weight="normal" letter-spacing="0.100000001">
                        <tspan x="330.719526" y="29">9:41 AM</tspan>
                    </text>
                    <path d="M691.908189,13 C691.081292,13 690.410959,13.6638158 690.410959,14.5078869 L690.410959,29.5421131 C690.410959,30.374896 691.082007,31.05 691.908189,31.05 L733.913728,31.05 C734.740626,31.05 735.410959,30.3861842 735.410959,29.5421131 L735.410959,14.5078869 C735.410959,13.675104 734.739911,13 733.913728,13 L691.908189,13 Z M736.410959,18.7 L736.410959,25.35 L738.412002,25.35 C738.963711,25.35 739.410959,24.8929186 739.410959,24.3400081 L739.410959,19.7099919 C739.410959,19.1521888 738.968299,18.7 738.412002,18.7 L736.410959,18.7 Z M692.410569,13.95 C691.8585,13.95 691.410959,14.3987993 691.410959,14.9480671 L691.410959,29.1019329 C691.410959,29.6531502 691.864775,30.1 692.410569,30.1 L733.411348,30.1 C733.963418,30.1 734.410959,29.6512007 734.410959,29.1019329 L734.410959,14.9480671 C734.410959,14.3968498 733.957143,13.95 733.411348,13.95 L692.410569,13.95 Z M692.914559,14.9 C692.636428,14.9 692.410959,15.1238335 692.410959,15.407165 L692.410959,28.642835 C692.410959,28.9229345 692.63155,29.15 692.914559,29.15 L732.907359,29.15 C733.18549,29.15 733.410959,28.9261665 733.410959,28.642835 L733.410959,15.407165 C733.410959,15.1270655 733.190368,14.9 732.907359,14.9 L692.914559,14.9 Z" id="Battery"></path>
                </g>
            </g>
        </g>
    </g>
</svg>