<?xml version="1.0" encoding="UTF-8" standalone="no"?>
<svg width="40px" height="40px" viewBox="0 0 40 40" version="1.1" xmlns="http://www.w3.org/2000/svg" xmlns:xlink="http://www.w3.org/1999/xlink">
    <!-- Generator: Sketch 39.1 (31720) - http://www.bohemiancoding.com/sketch -->
    <title>Shape</title>
    <desc>Created with Sketch.</desc>
    <defs></defs>
    <g id="Symbols" stroke="none" stroke-width="1" fill="none" fill-rule="evenodd">
        <g id="action-bar" transform="translate(-672.000000, -25.000000)" fill="#00607F">
            <path d="M700.174085,64.2999992 L711.176103,64.200882 L711.27522,53.1988645 L685.405611,27.2796973 L685.405611,27.2796973 C683.918852,25.7929382 681.936507,25 679.855044,25 L679.855044,25 C677.773581,25 675.791236,25.8424968 674.304477,27.3292559 C671.231841,30.4018914 671.231841,35.4073138 674.304477,38.4303907 L700.174085,64.2999992 L700.174085,64.2999992 Z M707.756557,60.781336 L701.611286,60.8308946 L680.00372,39.2728875 L686.248108,33.0284992 L707.806115,54.5865064 L707.756557,60.781336 L707.756557,60.781336 Z M676.73285,29.7576292 C677.575347,28.9151323 678.665637,28.4691046 679.855044,28.4691046 L679.855044,28.4691046 C681.044451,28.4691046 682.134741,28.9151323 682.977238,29.7576292 L683.819735,30.600126 L677.575347,36.7949556 L676.73285,35.9524588 C674.998298,34.2674651 674.998298,31.4426228 676.73285,29.7576292 L676.73285,29.7576292 Z" id="Shape" transform="translate(691.637610, 44.650000) scale(-1, 1) translate(-691.637610, -44.650000) "></path>
        </g>
    </g>
</svg>